<svg xmlns="http://www.w3.org/2000/svg" viewBox="0 0 152 76" >
  <path fill="#D60000" d="M18.764 19H20.2c2.043 0 3.859.908 3.859 3.255 0 3.255-3.102 3.33-3.859 3.33h-1.438V19Zm0 10.37h1.815c1.06 0 2.346 0 3.405.53 1.589.757 1.891 2.12 1.891 2.877 0 .984-.378 2.195-1.588 2.952-1.135.681-2.497.681-3.405.681h-2.119v-7.04Zm38.889-2.725c-1.74 0-3.556 1.136-3.935 3.331h7.869c-.379-2.27-2.194-3.33-3.934-3.33Zm61.057 28.538h-1.211V57h1.135c.227 0 .605 0 .908-.227a1.01 1.01 0 0 0 .303-.757c0-.303-.152-.53-.303-.606-.227-.227-.605-.227-.832-.227Zm-61.436-3.179c.605 0 1.286.227 1.74.605.53.455.757 1.212.757 1.893s-.227 1.438-.757 1.892c-.302.303-.832.606-1.664.606-.757 0-1.286-.303-1.665-.606-.53-.454-.832-1.135-.832-1.968 0-.832.303-1.438.832-1.892.379-.379.908-.53 1.59-.53Zm32.912-.454c-.908 0-1.891.605-2.118 1.817h4.237c-.227-1.212-1.211-1.817-2.119-1.817ZM130.134 38h1.74l4.464-8.554h-1.664l-1.513 3.18-1.741-3.18h-1.815l2.648 4.77L130.134 38Zm-9.609-3.785c0 .53.454.984.984.984s.984-.454.984-.984-.454-.984-.984-.984-.984.379-.984.984Z"/>
  <path fill="#D60000" fill-rule="evenodd" d="M125.292 34.39c.597.74 1.377.81 1.74.81.832 0 1.438-.304 1.892-.758.302-.303.908-.984.908-2.27 0-1.136-.454-1.817-.833-2.196-.605-.605-1.437-.757-1.891-.757-1.059 0-1.589.53-1.816.909v-.758h-1.589v8.554h1.589V34.39Zm2.345-3.354c-.302-.227-.68-.379-1.059-.379-.378 0-.756.152-1.059.303-.378.303-.53.681-.53 1.211s.227.909.53 1.212c.227.15.605.378 1.059.378.53 0 .832-.152 1.059-.379.303-.302.454-.832.454-1.21 0-.38-.151-.833-.454-1.136Z" clip-rule="evenodd"/>
  <path fill="#D60000" fill-rule="evenodd" d="M142.467 76H9.533C4.237 76 0 71.761 0 66.538v-57A9.496 9.496 0 0 1 9.533 0h132.934C147.763 0 152 4.315 152 9.538v56.924c0 5.299-4.313 9.538-9.533 9.538ZM13.846 15.064v25.434h8.55c2.193 0 4.539-.378 6.506-2.044 1.74-1.59 2.194-3.709 2.194-5.147 0-1.363-.303-3.331-1.816-4.77-.68-.605-1.664-1.362-3.329-1.589.681-.378 2.875-1.74 2.875-4.996 0-2.12-.908-4.163-2.345-5.299-2.043-1.59-4.842-1.59-6.28-1.59h-6.355Zm43.882 22.33c1.74 0 3.102-.832 3.859-2.195l4.237.757c-.53 1.211-2.421 5.147-8.171 5.147-2.649 0-4.691-.756-6.356-2.346-1.816-1.741-2.572-3.936-2.572-6.51 0-3.255 1.286-5.299 2.496-6.51 1.968-1.892 4.313-2.347 6.28-2.347 3.405 0 5.372 1.363 6.507 2.726 1.74 2.119 1.967 4.693 1.967 6.51v.378H53.567c0 .984.303 2.044.832 2.8.53.682 1.513 1.59 3.33 1.59Zm61.89 21.574h-4.616v-8.932h2.497v3.18h1.967c.833 0 1.816.226 2.421.907.379.379.681.985.681 1.893 0 1.211-.529 1.892-.983 2.27-.605.606-1.362.682-1.967.682ZM13.846 50.036v8.932h2.496l4.162-5.526v5.526H23v-8.932h-2.572l-4.161 5.526v-5.526h-2.421Zm13.845 8.932h-2.496v-8.932h2.496v3.18h3.48v-3.18h2.497v8.932h-2.496v-3.633h-3.48v3.633Zm14.678-8.705c-.756-.379-1.513-.53-2.42-.53-.833 0-2.12.151-3.254 1.136-.908.832-1.513 2.043-1.513 3.633 0 1.665.756 2.8 1.437 3.406.832.757 2.043 1.287 3.48 1.287 1.06 0 1.816-.303 2.346-.53v-2.422a2.95 2.95 0 0 1-1.967.757c-1.513 0-2.573-1.06-2.573-2.574 0-1.287.833-2.498 2.497-2.498.832 0 1.513.303 2.043.757v-2.422h-.076Zm8.777-.151v2.119h-2.497v6.813h-2.497V52.23h-2.496v-2.12h7.49Zm6.733 9.159c-.59 0-1.826-.072-2.799-1.337v5.803h-2.497V50.036h2.497v1.135c.378-.53 1.21-1.438 2.875-1.438.757 0 2.043.227 3.026 1.211.681.681 1.362 1.817 1.362 3.558 0 2.044-.908 3.103-1.437 3.633a4.585 4.585 0 0 1-3.026 1.136Zm8.096 4.466H63.1l3.253-6.132-4.237-7.57h2.951l2.8 5.073 2.496-5.072h2.8l-7.188 13.701Zm6.734-4.769h2.496l.757-4.845 2.194 4.845h.908l2.194-4.845.757 4.845h2.497l-1.665-8.932h-1.891l-2.422 5.147-2.42-5.147h-1.892l-1.513 8.932Zm17.477-1.665c.984 0 1.74-.454 2.119-1.211l2.27.454c-.228.681-1.287 2.8-4.389 2.8-1.437 0-2.497-.454-3.405-1.286-1.059-.909-1.437-2.044-1.437-3.482 0-1.741.757-2.877 1.362-3.482.983-1.06 2.27-1.287 3.329-1.287 1.816 0 2.875.681 3.48 1.438.908 1.135 1.06 2.498 1.06 3.482v.227h-6.659c0 .53.152 1.136.454 1.514.303.379.832.833 1.816.833Zm6.128 1.665h2.497v-3.633h3.481v3.633h2.496v-8.932h-2.496v3.18h-3.48v-3.18h-2.498v8.932Zm9.836-8.857h7.491v2.12h-2.497v6.813h-2.497V52.23h-2.497v-2.12Zm17.326 8.857h2.497v-8.932h-2.497v8.932ZM41.916 23.39c1.74 0 3.101.303 4.463.984h.076v4.542c-1.06-.908-2.27-1.438-3.859-1.438-3.102 0-4.69 2.27-4.69 4.693 0 2.725 2.042 4.694 4.842 4.694 1.059 0 2.42-.303 3.707-1.439v4.542c-.908.454-2.421 1.06-4.313 1.06-2.648 0-4.918-.984-6.43-2.422-1.287-1.212-2.649-3.256-2.649-6.359 0-2.877 1.21-5.223 2.875-6.737 2.043-1.741 4.389-2.12 5.977-2.12Zm86.704 18.85c5.221 0 9.533-4.239 9.533-9.538 0-5.223-4.237-9.538-9.533-9.538-5.22 0-9.533 4.24-9.533 9.538.076 5.223 4.313 9.538 9.533 9.538Z" clip-rule="evenodd"/>
</svg>
