<svg xmlns="http://www.w3.org/2000/svg" viewBox="0 0 174 41"><path d="M1.52.66h3.3c.827 0 1.487.08 1.98.24.507.147.933.347 1.28.6.387.307.687.707.9 1.2.227.48.34 1 .34 1.56 0 .613-.14 1.14-.42 1.58-.267.44-.627.787-1.08 1.04.36.067.68.173.96.32.28.133.54.307.78.52.32.32.56.7.72 1.14.16.427.24.88.24 1.36 0 .547-.1 1.053-.3 1.52a3.197 3.197 0 0 1-.84 1.18 4.053 4.053 0 0 1-1.46.82c-.547.173-1.187.26-1.92.26H1.52V.66Zm2.6 2.12V6.2h.74c.667.013 1.167-.133 1.5-.44.347-.32.52-.753.52-1.3 0-.52-.173-.927-.52-1.22-.347-.293-.84-.447-1.48-.46h-.76Zm0 5.42v3.68h1.12c.427.013.773-.007 1.04-.06.28-.067.527-.167.74-.3a1.73 1.73 0 0 0 .6-.64c.147-.267.22-.567.22-.9a1.673 1.673 0 0 0-.28-.9 1.752 1.752 0 0 0-.7-.62 2.847 2.847 0 0 0-.7-.2 7.382 7.382 0 0 0-1.08-.06h-.96Zm14.966-2.62v2.4a3.276 3.276 0 0 0-.92-.56c-.32-.133-.68-.2-1.08-.2-.773 0-1.38.24-1.82.72-.426.48-.633 1.053-.62 1.72 0 .72.234 1.313.7 1.78.48.453 1.087.68 1.82.68.347 0 .68-.06 1-.18.334-.133.64-.327.92-.58v2.38a5.263 5.263 0 0 1-1.08.4c-.373.093-.76.14-1.16.14a5.747 5.747 0 0 1-1.86-.34 4.357 4.357 0 0 1-1.48-.92c-.44-.4-.78-.88-1.02-1.44a4.82 4.82 0 0 1-.36-1.88c0-.733.134-1.4.4-2 .267-.6.634-1.107 1.1-1.52a4.348 4.348 0 0 1 1.44-.84 5.048 5.048 0 0 1 1.68-.28c.44 0 .847.047 1.22.14.387.08.76.207 1.12.38Zm8.1 5.64 2.24.36a4.414 4.414 0 0 1-1.6 1.98c-.707.48-1.594.72-2.66.72-.707-.013-1.334-.113-1.88-.3a4.148 4.148 0 0 1-1.44-.92c-.48-.44-.827-.94-1.04-1.5-.214-.56-.32-1.187-.32-1.88 0-.707.113-1.34.34-1.9a4.369 4.369 0 0 1 .98-1.5 3.733 3.733 0 0 1 1.42-.9c.546-.2 1.16-.307 1.84-.32.72.013 1.36.14 1.92.38.573.24 1.06.587 1.46 1.04.333.4.586.88.76 1.44.186.56.28 1.213.28 1.96v.2h-6.48c-.014.267.013.533.08.8.08.253.193.473.34.66.173.253.406.453.7.6.293.147.64.22 1.04.22.44 0 .833-.1 1.18-.3.346-.2.626-.48.84-.84Zm-4.1-2.7h4.1a2.156 2.156 0 0 0-.7-1.24c-.374-.333-.827-.5-1.36-.5-.494 0-.94.153-1.34.46-.387.307-.62.733-.7 1.28Zm-1.52-6.24c0-.387.14-.72.42-1 .28-.293.62-.44 1.02-.44.386 0 .72.147 1 .44.293.28.44.613.44 1-.014.4-.16.74-.44 1.02s-.614.42-1 .42c-.4 0-.74-.14-1.02-.42-.28-.28-.42-.62-.42-1.02Zm4.16 0c0-.387.14-.72.42-1 .28-.293.62-.44 1.02-.44.386 0 .72.147 1 .44.293.28.44.613.44 1 0 .4-.147.74-.44 1.02-.28.28-.614.42-1 .42-.4 0-.747-.14-1.04-.42-.28-.28-.414-.62-.4-1.02Zm11.117 3.06h7.2v6.58h1.28v4.6h-2.2V14h-5.96v2.52h-2.2v-4.6c.32-.013.613-.113.88-.3.28-.2.5-.467.66-.8.12-.24.206-.533.26-.88.053-.36.08-.807.08-1.34V5.34Zm4.76 6.58v-4.5h-2.56v1.92c0 .587-.08 1.093-.24 1.52a2.51 2.51 0 0 1-.72 1.06h3.52Zm12.725-6.58V14h-2.44V7.42h-2.36v3.18c0 .587-.073 1.093-.22 1.52-.146.413-.346.76-.6 1.04-.253.28-.586.507-1 .68-.4.16-.846.24-1.34.24-.12 0-.24-.013-.36-.04l-.36-.04v-2.08c.054.027.114.04.18.04h.2c.214 0 .4-.033.56-.1.174-.08.32-.187.44-.32.094-.107.167-.247.22-.42.054-.173.08-.4.08-.68v-5.1h7Zm1.56 8.66 2.56-3.24c-.28-.04-.546-.12-.8-.24-.24-.12-.44-.267-.6-.44a2.11 2.11 0 0 1-.52-.78 2.724 2.724 0 0 1-.16-1.06c0-.44.087-.847.26-1.22.187-.373.447-.693.78-.96.307-.24.66-.413 1.06-.52.4-.12.94-.187 1.62-.2h3.44V14h-2.44v-3.04h-.28L58.688 14h-2.8Zm5.2-4.8V7.26h-1.06c-.213.013-.38.04-.5.08a.727.727 0 0 0-.32.16.878.878 0 0 0-.24.34c-.053.12-.08.26-.08.42a.905.905 0 0 0 .06.44c.054.107.14.2.26.28.094.08.2.14.32.18.12.027.287.04.5.04h1.06Zm10.227-3.86h7.2v6.58h1.28v4.6h-2.2V14h-5.96v2.52h-2.2v-4.6c.32-.013.614-.113.88-.3.28-.2.5-.467.66-.8.12-.24.207-.533.26-.88.054-.36.08-.807.08-1.34V5.34Zm4.76 6.58v-4.5h-2.56v1.92c0 .587-.08 1.093-.24 1.52a2.51 2.51 0 0 1-.72 1.06h3.52Zm9.566-6.86c.68 0 1.313.107 1.9.32.6.2 1.133.5 1.6.9.44.413.793.913 1.06 1.5s.4 1.22.4 1.9c0 .693-.133 1.333-.4 1.92a4.526 4.526 0 0 1-1.06 1.46c-.467.413-1 .72-1.6.92-.587.2-1.22.3-1.9.3-.693 0-1.34-.1-1.94-.3a4.396 4.396 0 0 1-1.56-.92 4.39 4.39 0 0 1-1.08-1.46 4.792 4.792 0 0 1-.38-1.92c0-.68.127-1.313.38-1.9a4.553 4.553 0 0 1 1.08-1.5c.453-.4.973-.7 1.56-.9a5.75 5.75 0 0 1 1.94-.32Zm0 7.06c.693 0 1.273-.233 1.74-.7.467-.48.7-1.06.7-1.74 0-.68-.233-1.253-.7-1.72-.467-.48-1.047-.727-1.74-.74-.707 0-1.293.24-1.76.72-.453.48-.68 1.06-.68 1.74 0 .68.227 1.26.68 1.74.467.48 1.053.713 1.76.7ZM91.568 14l1.58-8.9h1.8l2.38 5.22 2.38-5.22h1.8l1.58 8.9h-2.44l-.72-4.7-2.24 4.88h-.72l-2.24-4.88-.72 4.7h-2.44Zm19.552-7.54V5.34h2.44V14h-2.44v-1.12a3.24 3.24 0 0 1-1.16 1.06c-.44.227-.94.34-1.5.34-1.306 0-2.373-.44-3.2-1.32-.813-.893-1.22-1.993-1.22-3.3 0-1.293.4-2.38 1.2-3.26.8-.893 1.834-1.34 3.1-1.34.614 0 1.154.12 1.62.36.467.24.854.587 1.16 1.04Zm-2.16.76c-.706 0-1.286.24-1.74.72-.44.467-.66 1.04-.66 1.72 0 .707.22 1.293.66 1.76.454.467 1.034.7 1.74.7.694 0 1.26-.233 1.7-.7.454-.467.687-1.053.7-1.76 0-.68-.226-1.253-.68-1.72-.453-.48-1.026-.72-1.72-.72Zm5.847 9.4 2.12-5.38 2.24.26-2.82 5.3-1.54-.18Zm13.11-11.28h7.2v6.58h1.28v4.6h-2.2V14h-5.96v2.52h-2.2v-4.6c.32-.013.613-.113.88-.3.28-.2.5-.467.66-.8.12-.24.207-.533.26-.88.053-.36.08-.807.08-1.34V5.34Zm4.76 6.58v-4.5h-2.56v1.92c0 .587-.08 1.093-.24 1.52a2.515 2.515 0 0 1-.72 1.06h3.52Zm11.686-5.46V5.34h2.44V14h-2.44v-1.12c-.32.467-.707.82-1.16 1.06-.44.227-.94.34-1.501.34-1.306 0-2.373-.44-3.199-1.32-.814-.893-1.22-1.993-1.22-3.3 0-1.293.4-2.38 1.2-3.26.8-.893 1.833-1.34 3.1-1.34.613 0 1.153.12 1.62.36.466.24.853.587 1.16 1.04Zm-2.16.76c-.707 0-1.287.24-1.74.72-.44.467-.66 1.04-.66 1.72 0 .707.22 1.293.66 1.76.453.467 1.033.7 1.74.7.693 0 1.26-.233 1.7-.7.453-.467.686-1.053.7-1.76 0-.68-.227-1.253-.68-1.72-.454-.48-1.027-.72-1.72-.72ZM154.049 14v-2.96c-.32.067-.654.12-1 .16-.347.027-.694.04-1.04.04-.56 0-1.04-.067-1.44-.2a2.52 2.52 0 0 1-.98-.6 2.36 2.36 0 0 1-.6-.82c-.12-.32-.18-.727-.18-1.22V5.34h2.44V7.9c0 .267.02.467.06.6a.67.67 0 0 0 .24.34c.12.12.273.207.46.26.2.04.46.06.78.06.226 0 .44-.007.64-.02.2-.013.406-.047.62-.1v-3.7h2.44V14h-2.44Zm4.767-8.66h2.44v5.34l4-5.34h2.44V14h-2.44V8.66l-4 5.34h-2.44V5.34Zm10.112 11.28 2.12-5.38 2.24.26-2.82 5.3-1.54-.18ZM7.68 27.58v2.4a3.275 3.275 0 0 0-.92-.56c-.32-.133-.68-.2-1.08-.2-.773 0-1.38.24-1.82.72-.427.48-.633 1.053-.62 1.72 0 .72.233 1.313.7 1.78.48.453 1.087.68 1.82.68.347 0 .68-.06 1-.18.333-.133.64-.327.92-.58v2.38a5.262 5.262 0 0 1-1.08.4c-.373.093-.76.14-1.16.14a5.748 5.748 0 0 1-1.86-.34 4.358 4.358 0 0 1-1.48-.92c-.44-.4-.78-.88-1.02-1.44a4.82 4.82 0 0 1-.36-1.88c0-.733.133-1.4.4-2 .267-.6.633-1.107 1.1-1.52a4.35 4.35 0 0 1 1.44-.84 5.048 5.048 0 0 1 1.68-.28c.44 0 .847.047 1.22.14.387.08.76.207 1.12.38Zm8.04 1.84h-2.4V36h-2.44v-6.58h-2.4v-2.08h7.24v2.08Zm3.72 5.46v5.76H17v-13.3h2.44v1.12c.306-.44.693-.78 1.16-1.02.48-.253 1.033-.38 1.66-.38 1.253.013 2.273.453 3.06 1.32.8.867 1.2 1.96 1.2 3.28 0 1.333-.407 2.44-1.22 3.32-.8.867-1.834 1.3-3.1 1.3a3.934 3.934 0 0 1-1.56-.34c-.467-.227-.867-.58-1.2-1.06Zm2.16-5.66c-.707 0-1.287.24-1.74.72-.453.467-.674 1.04-.66 1.72 0 .707.22 1.293.66 1.76.453.467 1.033.7 1.74.7.693 0 1.266-.233 1.72-.7.453-.467.68-1.053.68-1.76 0-.68-.227-1.253-.68-1.72-.454-.467-1.027-.707-1.72-.72Zm11.326-2.16c.68 0 1.313.107 1.9.32.6.2 1.133.5 1.6.9.44.413.793.913 1.06 1.5s.4 1.22.4 1.9c0 .693-.133 1.333-.4 1.92a4.527 4.527 0 0 1-1.06 1.46c-.467.413-1 .72-1.6.92-.587.2-1.22.3-1.9.3-.693 0-1.34-.1-1.94-.3a4.394 4.394 0 0 1-1.56-.92 4.39 4.39 0 0 1-1.08-1.46 4.792 4.792 0 0 1-.38-1.92c0-.68.127-1.313.38-1.9a4.552 4.552 0 0 1 1.08-1.5c.453-.4.973-.7 1.56-.9a5.75 5.75 0 0 1 1.94-.32Zm0 7.06c.693 0 1.273-.233 1.74-.7.467-.48.7-1.06.7-1.74 0-.68-.233-1.253-.7-1.72-.467-.48-1.047-.727-1.74-.74-.707 0-1.293.24-1.76.72-.453.48-.68 1.06-.68 1.74 0 .68.227 1.26.68 1.74.467.48 1.053.713 1.76.7Zm6.847-6.78h2.44v5.34l4-5.34h2.44V36h-2.44v-5.34l-4 5.34h-2.44v-8.66Zm6.12-4.34 1.6.76c-.24.68-.66 1.2-1.26 1.56-.6.347-1.273.513-2.02.5-.76 0-1.44-.173-2.04-.52-.6-.347-1.013-.86-1.24-1.54l1.6-.76c.067.373.254.68.56.92.32.227.694.34 1.12.34.427 0 .787-.113 1.08-.34.307-.24.507-.547.6-.92Zm5.072 4.34h2.44v3.36l3.24-3.36h3.04l-3.92 3.86 4.12 4.8h-3.12l-3-3.58-.36.36V36h-2.44v-8.66Zm10 0h2.44v5.34l4-5.34h2.44V36h-2.44v-5.34l-4 5.34h-2.44v-8.66Zm15.86 0h2.44v5.34l4-5.34h2.44V36h-2.44v-5.34l-4 5.34h-2.44v-8.66Zm18.298 7.54v5.76h-2.44v-13.3h2.44v1.12c.307-.44.694-.78 1.16-1.02.48-.253 1.034-.38 1.66-.38 1.254.013 2.274.453 3.06 1.32.8.867 1.2 1.96 1.2 3.28 0 1.333-.406 2.44-1.22 3.32-.8.867-1.833 1.3-3.1 1.3a3.934 3.934 0 0 1-1.56-.34c-.466-.227-.866-.58-1.2-1.06Zm2.16-5.66c-.706 0-1.286.24-1.74.72-.453.467-.673 1.04-.66 1.72 0 .707.22 1.293.66 1.76.454.467 1.034.7 1.74.7.694 0 1.267-.233 1.72-.7.454-.467.68-1.053.68-1.76 0-.68-.226-1.253-.68-1.72-.453-.467-1.026-.707-1.72-.72Zm13.067 4 2.24.36a4.417 4.417 0 0 1-1.6 1.98c-.707.48-1.594.72-2.66.72-.707-.013-1.334-.113-1.88-.3a4.136 4.136 0 0 1-1.44-.92 3.91 3.91 0 0 1-1.04-1.5c-.214-.56-.32-1.187-.32-1.88 0-.707.113-1.34.34-1.9a4.354 4.354 0 0 1 .98-1.5 3.726 3.726 0 0 1 1.42-.9 5.65 5.65 0 0 1 1.84-.32c.72.013 1.36.14 1.92.38.573.24 1.06.587 1.46 1.04.333.4.586.88.76 1.44.186.56.28 1.213.28 1.96v.2h-6.48c-.014.267.013.533.08.8.08.253.193.473.34.66.173.253.406.453.7.6.293.147.64.22 1.04.22.44 0 .833-.1 1.18-.3.346-.2.626-.48.84-.84Zm-4.1-2.7h4.1a2.162 2.162 0 0 0-.7-1.24c-.374-.333-.827-.5-1.36-.5-.494 0-.94.153-1.34.46-.387.307-.62.733-.7 1.28Zm7.369 5.48 1.58-8.9h1.8l2.38 5.22 2.38-5.22h1.8l1.58 8.9h-2.44l-.72-4.7-2.24 4.88h-.72l-2.24-4.88-.72 4.7h-2.44Zm17.432-8.94c.68 0 1.313.107 1.9.32.6.2 1.133.5 1.6.9.44.413.793.913 1.06 1.5s.4 1.22.4 1.9a4.58 4.58 0 0 1-.4 1.92 4.531 4.531 0 0 1-1.06 1.46c-.467.413-1 .72-1.6.92-.587.2-1.22.3-1.9.3a6.1 6.1 0 0 1-1.94-.3 4.39 4.39 0 0 1-1.56-.92 4.399 4.399 0 0 1-1.08-1.46 4.797 4.797 0 0 1-.38-1.92c0-.68.127-1.313.38-1.9a4.56 4.56 0 0 1 1.08-1.5c.453-.4.973-.7 1.56-.9.6-.213 1.247-.32 1.94-.32Zm0 7.06c.693 0 1.273-.233 1.74-.7.467-.48.7-1.06.7-1.74 0-.68-.233-1.253-.7-1.72-.467-.48-1.047-.727-1.74-.74-.707 0-1.293.24-1.76.72-.453.48-.68 1.06-.68 1.74 0 .68.227 1.26.68 1.74.467.48 1.053.713 1.76.7Zm6.847 1.88v-8.66h2.44v3.06h3.4v-3.06h2.44V36h-2.44v-3.52h-3.4V36h-2.44Zm16.806-6.58h-2.4V36h-2.44v-6.58h-2.4v-2.08h7.24v2.08Zm7.92-.96v-1.12h2.44V36h-2.44v-1.12a3.24 3.24 0 0 1-1.16 1.06c-.44.227-.94.34-1.5.34-1.306 0-2.373-.44-3.2-1.32-.813-.893-1.22-1.993-1.22-3.3 0-1.293.4-2.38 1.2-3.26.8-.893 1.834-1.34 3.1-1.34.614 0 1.154.12 1.62.36.467.24.854.587 1.16 1.04Zm-2.16.76c-.706 0-1.286.24-1.74.72-.44.467-.66 1.04-.66 1.72 0 .707.22 1.293.66 1.76.454.467 1.034.7 1.74.7.694 0 1.26-.233 1.7-.7.454-.467.687-1.053.7-1.76 0-.68-.226-1.253-.68-1.72-.453-.48-1.026-.72-1.72-.72Z"/></svg>